<svg xmlns="http://www.w3.org/2000/svg" width="160" height="160" viewBox="0 0 160 160"><g fill-rule="evenodd" clip-rule="evenodd"><path fill="#605A54" d="M136.373 109.342H85.414v12.539h50.959v-1.017h-4.399v-10.506h4.399z"/><path fill="#D3CFCF" d="M135.302 110.358H86.545v10.506h49.168c-.884-1.642-1.396-3.589-1.396-5.677 0-1.739.356-3.38.985-4.829z"/><path fill="#735D5E" d="M113.061 109.342H85.415c-3.896 0-3.896 12.539 0 12.539h27.646c-3.236-2.13-3.019-9.91 0-12.539z"/><path fill="#9B8488" d="M112.294 120.864h24.079v1.017h-24.974c-2.205-3.019-2.145-9.263-.096-12.539h25.069v1.017H112.45c-1.853 2.781-2.003 7.925-.156 10.505z"/><path fill="#605A54" d="M81.366 96.802h50.958v12.54H81.366v-1.017h4.398V97.818h-4.398z"/><path fill="#D3CFCF" d="M82.437 97.818h48.757v10.507H82.026c.882-1.642 1.394-3.589 1.394-5.678 0-1.738-.355-3.379-.983-4.829z"/><path fill="#79836C" d="M104.678 96.802h27.646c3.897 0 3.897 12.54 0 12.54h-27.646c3.234-2.13 3.017-9.909 0-12.54z"/><path fill="#6D755F" d="M105.445 108.325H81.367v1.017h24.972c2.206-3.019 2.146-9.264.096-12.54H81.366v1.017h23.922c1.853 2.783 2.004 7.927.157 10.506z"/><path fill="#8C515F" d="M127.738 86.91H91.499c-2.131 0-3.875 1.213-3.875 2.696v4.5c0 1.483 1.744 2.695 3.875 2.695h36.239v-.707h-7.212v-8.477h7.212v-.707z"/><path fill="#935B69" d="M127.738 86.91h-21.581v9.892h21.581v-.707h-7.212v-8.477h7.212z"/><path fill="#C9BEBF" d="M127.055 96.095H91.387c-1.39 0-2.852-.785-2.852-1.988v-4.5c0-1.203 1.462-1.988 2.852-1.988h35.668a13.89 13.89 0 0 0-.648 4.238 13.864 13.864 0 0 0 .648 4.238z"/><path fill="#D3CFCF" d="M105.578 96.095a13.89 13.89 0 0 1-.649-4.238c0-1.507.232-2.938.649-4.238h21.476a13.89 13.89 0 0 0-.648 4.238c0 1.506.231 2.939.648 4.238h-21.476z"/><path fill="#BBAFB0" d="M83.942 98.49h21.346v.282H83.942zm0 .918h21.346v.283H83.942zm0 .919h21.346v.282H83.942zm0 .918h21.346v.282H83.942zm0 .918h21.346v.283H83.942zm0 .917h21.346v.283H83.942zm0 .919h21.346v.283H83.942zm0 .918h21.346v.282H83.942zm0 .918h21.346v.283H83.942zm0 .918h21.346v.284H83.942zm0 .918h21.346v.283H83.942zm28.424 3.826h21.348v.283h-21.348zm0 .919h21.348v.282h-21.348zm0 .919h21.348v.281h-21.348zm0 .917h21.348v.283h-21.348zm0 .918h21.348v.282h-21.348zm0 .918h21.348v.283h-21.348zm0 .919h21.348v.281h-21.348zm0 .917h21.348v.283h-21.348zm0 .918h21.348v.284h-21.348zm0 .919h21.348v.282h-21.348zm-22.45-31.444h35.901v.243H89.916zm0 .79h35.901v.241H89.916zm0 .789h35.901v.244H89.916zm0 .789h35.901v.243H89.916zm0 .789h35.901v.243H89.916zm0 .789h35.901v.243H89.916zm0 .79h35.901v.241H89.916zm0 .788h35.901v.244H89.916zm0 .789h35.901v.243H89.916zm0 .789h35.901v.243H89.916z"/><path fill="#605A54" d="M136.588 77.732H85.63v9.178h50.958v-.744h-4.398v-7.689h4.398z"/><path fill="#D3CFCF" d="M135.517 78.477H86.76v7.689h49.168c-.882-1.201-1.394-2.627-1.394-4.154 0-1.274.355-2.475.983-3.535z"/><path fill="#947073" d="M113.276 77.732H85.63c-3.896 0-3.896 9.178 0 9.178h27.646c-3.234-1.558-3.018-7.253 0-9.178z"/><path fill="#AF8D90" d="M112.509 86.166h24.079v.744h-24.972c-2.206-2.209-2.146-6.78-.096-9.178h25.067v.744h-23.921c-1.853 2.037-2.004 5.803-.157 7.69z"/><path fill="#BBAFB0" d="M112.583 79.311h21.346v.207h-21.346zm0 .671h21.346v.207h-21.346zm0 .672h21.346v.207h-21.346zm0 .672h21.346v.208h-21.346zm0 .673h21.346v.206h-21.346zm0 .673h21.346v.205h-21.346zm0 .672h21.346v.205h-21.346zm0 .671h21.346v.206h-21.346zm0 .672h21.346v.207h-21.346zm0 .671h21.346v.207h-21.346z"/><path fill="#322D37" d="M89.252 133.823h42.332v8.72H89.252v-.707h3.653v-7.306h-3.653z"/><path fill="#D0C9CB" d="M90.142 134.53h40.503v7.306H89.8a7.288 7.288 0 0 0 1.158-3.947c0-1.21-.295-2.352-.816-3.359z"/><path fill="#4D3538" d="M108.617 133.823h22.967c3.236 0 3.236 8.72 0 8.72h-22.967c2.687-1.48 2.507-6.892 0-8.72z"/><path fill="#81686A" d="M109.254 141.836H89.252v.707h20.744c1.832-2.1 1.783-6.441.08-8.72H89.252v.707h19.873c1.538 1.935 1.663 5.513.129 7.306z"/><path fill="#322D37" d="M134.946 125.104H92.613v8.719h42.333v-.707h-3.654v-7.306h3.654z"/><path fill="#D0C9CB" d="M134.056 125.81H93.553v7.307h40.845a7.294 7.294 0 0 1-1.158-3.948 7.261 7.261 0 0 1 .816-3.359z"/><path fill="#456E6F" d="M115.58 125.104H92.613c-3.236 0-3.236 8.72 0 8.72h22.967c-2.686-1.482-2.507-6.893 0-8.72z"/><path fill="#325E60" d="M114.943 133.116h20.003v.707h-20.745c-1.832-2.1-1.783-6.441-.08-8.72h20.825v.706h-19.874c-1.538 1.935-1.663 5.513-.129 7.307z"/><path fill="#733A1C" d="M96.424 118.223h30.104c1.77 0 3.219.844 3.219 1.875v3.131c0 1.031-1.449 1.875-3.219 1.875H96.424v-.492h5.99v-5.896h-5.99v-.493z"/><path fill="#7E472B" d="M96.424 118.223h17.929v6.881H96.424v-.493h5.99v-5.895h-5.99z"/><path fill="#BFB4B7" d="M96.992 124.611h29.629c1.155 0 2.368-.547 2.368-1.383v-3.131c0-.835-1.213-1.382-2.368-1.382H96.992c.346.903.539 1.9.539 2.947s-.193 2.045-.539 2.949z"/><path fill="#D0C9CB" d="M114.832 124.611c.348-.904.539-1.901.539-2.948s-.191-2.044-.539-2.947h-17.84c.346.903.539 1.9.539 2.947s-.193 2.044-.539 2.948h17.84z"/><path fill="#AD9EA2" d="M115.073 126.277h17.732v.195h-17.732zm0 .638h17.732v.197h-17.732zm0 .639h17.732v.196h-17.732zm0 .638h17.732v.196h-17.732zm0 .639h17.732v.196h-17.732zm0 .639h17.732v.196h-17.732zm0 .637h17.732v.197h-17.732zm0 .639h17.732v.196h-17.732zm0 .639h17.732v.196h-17.732zm0 .638h17.732v.196h-17.732zm0 .639h17.732v.196h-17.732zm-23.612 2.66h17.732v.197H91.461zm0 .638h17.732v.197H91.461zm0 .64h17.732v.196H91.461zm0 .638h17.732v.197H91.461zm0 .638h17.732v.197H91.461zm0 .639h17.732v.197H91.461zm0 .637h17.732v.197H91.461zm0 .64h17.732v.196H91.461zm0 .639h17.732v.195H91.461zm0 .637h17.732v.197H91.461zm6.559-21.866h29.825v.169H98.02zm0 .549h29.825v.169H98.02zm0 .549h29.825v.169H98.02zm0 .549h29.825v.169H98.02zm0 .548h29.825v.169H98.02zm0 .549h29.825v.169H98.02zm0 .548h29.825v.17H98.02zm0 .549h29.825v.17H98.02zm0 .549h29.825v.17H98.02zm0 .549h29.825v.17H98.02z"/><path fill="#322D37" d="M89.072 111.841h42.331v6.382H89.072v-.518h3.653v-5.348h-3.653z"/><path fill="#D0C9CB" d="M89.962 112.357h40.502v5.348H89.621c.732-.835 1.156-1.826 1.156-2.889 0-.884-.294-1.721-.815-2.459z"/><path fill="#775E4E" d="M108.438 111.841h22.966c3.238 0 3.238 6.382 0 6.382h-22.966c2.686-1.083 2.507-5.043 0-6.382z"/><path fill="#9F8770" d="M109.075 117.705H89.072v.518h20.745c1.832-1.535 1.781-4.714.079-6.382H89.072v.517h19.874c1.538 1.416 1.662 4.035.129 5.347z"/><path fill="#AD9EA2" d="M91.281 112.938h17.733v.145H91.281zm0 .468h17.733v.144H91.281zm0 .466h17.733v.145H91.281zm0 .468h17.733v.145H91.281zm0 .468h17.733v.145H91.281zm0 .466h17.733v.144H91.281zm0 .468h17.733v.145H91.281zm0 .467h17.733v.146H91.281zm0 .468h17.733v.144H91.281zm0 .468h17.733v.144H91.281z"/><path fill="#D95335" d="M107.648 40.58s1.186 11.687.572 15.992c-.615 4.306-2.33 5.711-2.066 4.921.265-.792.396-2.592.396-2.592-1.057 1.294-3.471 4.524-4.173 8.742-.118.711-1.274-4.173-1.274-4.173s.088 1.582-2.855 2.856c-2.943 1.273-4.043 1.142-3.515 1.098.527-.044 2.328-4.833 2.46-5.448s-.813-17.669-.275-17.546 10.73-3.85 10.73-3.85z"/><path fill="#BFB4B7" d="M30.259 71.512c-.256-.33-1.149-3.731-1.149-3.731l2.45-.406s7.56.769 10.855 2.27c3.295 1.501 3.66 3.149 3.66 3.149 3.422-1.957 11.762-5.762 17.428-4.833l3.01.494-2.79 5.035-17.515 4.069-15.949-6.047z"/><path fill="#D9B4A4" stroke="#000" stroke-width=".5" stroke-miterlimit="2.613" d="M77.083 73.878c-.807-.366-2.71-.439-3.881.073-1.172.513-16.108 12.668-15.962 13.913.146 1.245 3.148 4.174 3.88 3.954.732-.22 15.377-10.179 15.598-10.837.219-.659.365-7.103.365-7.103z"/><path fill="#D9884C" d="M78.605 76.325c-.146-.805.102-3.539-1.413-3.6-7.535-.302-13.148 7.934-18.301 13.105 0 0 8.292 8.653 8.511 8.216.22-.439 10.105-8.348 11.203-11.643 1.099-3.296 0-6.078 0-6.078z"/><path fill="#462F2B" d="M87.605 70.788s8.641 1.977 10.105 2.27c1.464.292 9.372 2.27 9.812 2.783.439.512-4.832 24.31-9.812 35-4.979 10.69-10.69 15.083-10.69 15.083s-19.91-5.104-24.304-7.3c-4.393-2.196-7.987-3.391-7.255-3.391s12.082-12.74 14.719-20.063c2.635-7.321 1.609-19.624 3.807-21.234 2.198-1.611 13.618-3.148 13.618-3.148z"/><path fill="#D9D9D9" d="M89.571 70.632s3.479.548 4.357 1.793c1.628 2.308-3.424 6.26-5.162 7.139-2.514 1.273-9.428 1.968-10.398-1.794-.292-1.135.911-3.102 2.38-4.613 1.47-1.51 3.223-2.013 5.163-2.379s3.66-.146 3.66-.146z"/><path fill="#D9B0A4" d="M83.432 64.93c.22.585-.234 5.119-.658 6.078-.908 2.053-7.103 7.982 1.114 8.522 4.93.325 9.173-5.374 9.283-6.18.11-.805-1.251-1.235-1.826-2.985s.068-6.533.068-6.533l-7.981 1.098z"/><path fill="#331B1C" d="M30.511 70.45c-.294-.33-1.828-2.428-1.828-2.428l.427-.241 16.581 6.375 20.822-5.702.392.299-1.719 3.38-19.257 4.222-15.418-5.905z"/><path fill="#2D4C4E" d="M45.54 74.624l-16.857-6.602 7.322 30.46 16.271 5.139 3.387-.767-6.914-29.126z"/><path fill="#006155" d="M74.226 98.922c-.877 0-21.966 4.686-21.966 4.686l-6.736-28.996 21.381-5.858 7.321 30.168z"/><path fill="#331B1C" d="M45.386 126.198c-1.718.515-14.77-.95-16.109 1.464-.732 1.317 0 6.442.438 8.054.44 1.611 2.344.953 3.296.659.951-.293 3.953-1.317 7.175-1.025 3.223.294 5.689 1.627 6.19-.32.498-1.949-1.151-8.803-.99-8.832z"/><path fill="#4D3538" d="M78.547 126.452c6.15.659 14.132.293 16.549.586 2.416.293 4.612.585 3.881 3.881-.732 3.295-4.613 12.521-6.884 13.034-2.269.513-10.617-1.978-12.74-3.516-2.123-1.537-7.25-4.1-7.102-4.32.146-.22 6.296-9.665 6.296-9.665z"/><path fill="#331B1C" d="M78.313 127.58c.366.146 6.119.708 8.243.965 2.313.279 3.488.363 2.921 1.743-.846 2.056-2.755 6.659-3.183 7.323-.556.863-1.464.732-1.464.732s-9.958-4.504-9.812-4.76 3.295-6.003 3.295-6.003z"/><path fill="#7A462B" d="M81.256 126.307c-1.465-.732-28.165-14.352-34.413-16.401-6.25-2.052-9.795-3.942-14.796-3.533-5.002.408-6.805 5.979-6.952 8.469-.146 2.488.659 5.022 3.295 6.193 2.636 1.172 15.816 4.101 22.113 6.591s21.82 9.519 22.992 9.958c1.171.438 7.761-11.277 7.761-11.277z"/><path fill="#714227" d="M28.37 107.908c-2.258 1.935-3.172 5.188-3.275 6.933-.146 2.488.659 5.022 3.295 6.193 2.268 1.009 12.33 3.314 19.109 5.524 2.689-.15 4.51-.313 4.51-.313s-23.359-6.81-24.896-11.202c-.831-2.373.112-5.108 1.257-7.135z"/><path fill="#714227" d="M69.299 120.306c-4.162-2.063-8.798-4.33-12.862-6.242l5.734 3.83s-.39.271-2.16.695c-1.771.425-13.217 3.516-13.84 3.295-.622-.22-4.355.77-4.979.915-.623.146-1.185 1.563-1.185 1.563 3.849 1.053 7.802 2.198 10.495 3.264.371.147.777.311 1.209.487l17.588-7.807z"/><path fill="#6C381E" d="M73.702 129.352c-.293 1.392-3.516 6.774-3.697 7.104-.184.329 3.295 2.05 3.77 2.159.477.109 2.893-3.515 4.32-5.895 1.429-2.38 1.916-4.252 1.916-4.252l-6.309.884z"/><path fill="#D9B4A4" d="M103.495 57.373c-.129.905-.518 5.82-9.7 9.183-9.182 3.363-17.719 3.233-23.409-1.423-5.691-4.656-7.502-7.114-6.984-11.123.518-4.01 1.422-5.562 1.293-7.113-.129-1.552-3.492-3.492-1.035-9.054 2.458-5.562 4.656-8.537 4.656-8.537s-1.551-4.009 10.478-5.302c12.027-1.293 18.882-2.587 24.185 4.397s4.397 16.038 4.397 16.038 3.886-2.307 5.186 1.548c.043.124.081.255.118.392 1.164 4.397-1.94 9.053-4.915 10.476-2.977 1.423-4.27.518-4.27.518z"/><path fill="#AA311B" d="M78.296 43.236c1.748-.254 2.076-1.629 12.813-.018.907.136-.349-1.838-2.425-2.432-2.075-.593-2.806-.803-6.141-.92a83.582 83.582 0 0 0-3.504-.055c-3.111.02-3.552 3.833-.743 3.425z"/><path fill="#A22D18" d="M78.296 43.236c1.748-.254 2.076-1.629 12.813-.018.177.026.271-.027.294-.136-.35-.45-4.164-1.312-7.485-1.544-3.322-.232-5.86 1.299-6.653.911a1.553 1.553 0 0 1-.79-.896c-.23.951.35 1.897 1.821 1.683z"/><path fill="#AA311B" d="M70.387 42.745c-1.107-.292-1.438-1.661-7.948-.321-.549.113.048-1.81 1.279-2.347 1.232-.537 1.666-.728 3.725-.765.939-.017 1.662.004 2.167.028 1.931.093 2.556 3.875.777 3.405z"/><path fill="#A22D18" d="M70.387 42.745c-1.107-.292-1.438-1.661-7.948-.321-.115.024-.18-.042-.199-.164.325-.259.857-.597 1.445-.736.891-.209 3.93-.598 5.029-.064 1.099.533 1.859.662 2.148.404.152-.134.369-.348.543-.522.14.863-.158 1.63-1.018 1.403z"/><path fill="#A56948" d="M106.923 44.957c-.646 0-16.229-4.301-16.747-4.431-2.053-.512-30.319 1.157-31.042 2.458-.324.582.646 8.989 1.682 10.671 1.035 1.681 8.277 1.099 8.602.84.323-.258.97-.42 1.325-1.487s-.421-9.636-.421-9.636.516-.691 2.165-.674c1.649.016 2.136.513 2.136.513s-.291 9.119.938 10.412c1.23 1.293 13.387 1.035 14.616.517 1.228-.517.905-11.446.905-11.446l15.033 3.46.808-1.197zm-38.471-2.462s.387.033.517.292 1.132 10.282 1.067 10.444c-.064.162-.162.388-.712.453-.549.064-7.024-.081-7.274-.097-.252-.017-.55-.412-.68-.8-.129-.388-1.83-8.621-1.305-9.3.527-.68 8.161-.992 8.387-.992zm20.956 10.601c-.733.81-12.896.091-12.979.037-.521-.348-.961-9.583-.508-10.978.145-.445 9.369-.441 12.322-.391.47.009 1.141-.116 1.248.344.422 1.807.298 10.569-.083 10.988z"/><path fill="#D49282" d="M72.901 48.411c-.098.42-.227 1.423-1.844 3.137-1.616 1.713-2.455 1.66-2.453 2.349.003.584 2.693 1.862 3.178 1.959.486.097 1.781-.186 1.766-.654-.009-.268-1.301-.503-2.235-.789-.704-.215-1.206-.458-.804-.764.938-.711 1.746-2.198 2.231-3.556.484-1.358.161-1.682.161-1.682z"/><path fill="#331B1C" d="M82.445 47.346c.715 0 1.346.666 1.411 1.487.063.821-.463 1.487-1.178 1.487-.714 0-1.346-.666-1.409-1.487-.065-.821.462-1.487 1.176-1.487zm-15.302.711c.714 0 1.341.666 1.398 1.487s-.474 1.487-1.188 1.487-1.34-.666-1.398-1.487.473-1.487 1.188-1.487z"/><path fill="#7E472B" d="M94.437 126.014c-18.967 5.62-24.104 10.391-43.494 12.814-1.172.146-6.15.951-6.15-.952s-2.637-13.034-2.637-13.034l2.461-.755c5.554-1.701 19.18-5.854 26.975-8.031 9.958-2.783 18.525-8.055 23.064-4.613 4.54 3.441 4.76 7.104 4.027 10.179s-4.246 4.392-4.246 4.392z"/><path fill="#D9B4A4" d="M32.995 80.612c1.379.043 2.56 2.146.684 2.489-1.877.344-2.527.313-3.263-.421-.433-.431-.38-1.089-.299-1.561.118-.697 1.539-.548 2.878-.507z"/><path fill="#D9A99A" d="M33.746 80.837c.968.56 1.449 1.988-.067 2.265-1.764.324-2.445.314-3.133-.296.998.173 2.582.195 3.261-.188.533-.301.215-1.18-.061-1.781z"/><path fill="#D99780" d="M111.228 47.114c.706 1.411-.096 4.103-1.378 6.027s-2.66 2.661-3.687 2.212c-1.025-.449-1.116-1.197-.639-2.153.479-.956 1.408-.347 1.504-1.309.097-.961-.256-.513-.448-1.571-.192-1.058.063-1.443.641-2.5.794-1.456 3.178-2.363 4.007-.706z"/><path fill="#AA311B" d="M72.997 60.355c4.471.446 8.66.546 13.152-1.65-1.573 5.038-12.943 5.477-13.152 1.65z"/><path fill="#7E472B" d="M98.977 130.919c.689-3.103-1.217-3.543-3.459-3.828 1.969 1.457-2.813 14.572-7.034 16.567 1.553.316 2.889.457 3.609.295 2.27-.514 6.151-9.739 6.884-13.034z"/><path fill="#6C381E" d="M45.29 122.711c-1.438.29-4.002 1.057-4.117 1.443-.141.473.953 3.515 1.684 8.567.732 5.052.074 6.297.732 6.81.659.513 5.473-.481 5.473-.481s-1.334-7.572-1.629-10.502a22.923 22.923 0 0 0-1.072-4.994c-.192-.577-.178-1.023-1.071-.843z"/><ellipse transform="rotate(-105.712 83.076 48.627)" fill="#D9D9D9" cx="83.075" cy="48.624" rx=".72" ry=".509"/><ellipse transform="rotate(-105.712 67.766 49.347)" fill="#D9D9D9" cx="67.765" cy="49.344" rx=".72" ry=".51"/><ellipse fill="#D49282" cx="92.429" cy="55.726" rx=".21" ry=".259"/><path fill="#D49282" d="M94.271 55.015c.116 0 .212-.102.212-.226 0-.125-.096-.227-.212-.227-.114 0-.209.102-.209.227 0 .124.094.226.209.226z"/><ellipse fill="#D49282" cx="95.93" cy="55.21" rx=".233" ry=".193"/><ellipse fill="#D49282" cx="93.355" cy="53.754" rx=".185" ry=".19"/><circle fill="#D49282" cx="89.236" cy="54.74" r=".178"/><ellipse fill="#D49282" cx="94.046" cy="52.137" rx=".211" ry=".178"/><ellipse fill="#D49282" cx="95.032" cy="53.107" rx=".259" ry=".243"/><ellipse fill="#D49282" cx="91.495" cy="52.274" rx=".199" ry=".17"/><circle fill="#D49282" cx="92.713" cy="52.234" r=".178"/><ellipse fill="#D49282" cx="91.67" cy="54.19" rx=".194" ry=".21"/><ellipse fill="#D49282" cx="89.862" cy="55.532" rx=".135" ry=".129"/><ellipse fill="#D49282" cx="90.569" cy="57.213" rx=".162" ry=".259"/><ellipse fill="#D49282" cx="93.189" cy="58.059" rx=".23" ry=".199"/><circle fill="#D49282" cx="93.925" cy="56.632" r=".162"/><path fill="#C35A25" d="M104.475 98.271l.097 5.991s-.065 1.423-2.966.809c-2.899-.615-4.766-2.329-4.547-3.099.22-.769 1.56-2.965 2.438-3.118.878-.154 4.978-.583 4.978-.583z"/><path fill="#D9B4A4" d="M100.801 78.124c-.989 1.385-3.11 22.612-3.464 22.33-.354-.283-17.206-12.167-19.4-12.667-2.389-2.75-6.445-7.092-6.822-7.092-.379 0-3.404-.207-3.589-.17-.183.036-6.022 1.685-5.95 2.16.074.477 0 .659 1.209.806.668.081 3.134-.682 4.018-.726.715-.036 1.456.249 1.456.249s-5.479 1.579-6.717 2.24c-1.133.604-.257 1.238.685 1.353.662.079 2.589-.575 3.652-.782.873-.171 1.695-.137 1.695-.137-.869.436-5.689 2.652-4.916 3.319.729.632 1.157.31 1.966-.037.573-.246 2.089-1.017 2.681-1.087.735-.088 1.243.19 1.229.202l-1.978 1.446s-1.393 1.402-.532 1.987c.859.585 2.293-1.255 2.293-1.255s.505-.063 1.111-.444l1.012.59s-.088.228 2.035 1.29c2.123 1.061 3.92-.013 3.92-.013 4.255 3.898 14.697 13.221 18.677 16.24 2.101 1.593 4.54.731 5.272.146.578-.462 7.25-16.784 7.985-27.108.675-9.483-6.538-4.225-7.528-2.84z"/><path fill="#D9A897" d="M65.884 91.396a.643.643 0 0 0 .139.123c.859.585 2.293-1.255 2.293-1.255s.505-.063 1.111-.444l1.012.59s-.088.228 2.035 1.29c2.123 1.061 3.92-.013 3.92-.013 4.255 3.898 14.697 13.221 18.677 16.24 2.101 1.593 4.54.731 5.272.146.259-.207 1.729-3.573 3.347-8.154l-.569-.497s-.877 2.109-2.107 4.351c-1.23 2.239-1.011 3.733-4.833 3.163-3.822-.572-19.573-16.168-19.573-16.168s-.746.791-2.68.901c-1.933.109-3.559-2.636-3.559-2.636s-.988.131-1.405.285c-.417.152-1.23 1.187-2.196 1.802-.361.228-.651.293-.884.276z"/><path fill="#D9884C" d="M106.543 74.555c-9.84-1.713-8.445 17.73-9.206 25.899 2.035-.701 6.665-.699 7.234 3.808 3.734-6.096 8.08-28.643 1.972-29.707z"/><path fill="#714227" d="M47.826 131.525c.499 3.35 1.235 7.524 1.235 7.524.814-.072 1.523-.178 1.881-.222 7.213-.902 12.454-2.129 17.168-3.603a110.64 110.64 0 0 0 3.223-1.067c.96-.335 1.912-.681 2.869-1.035.447-.166.897-.333 1.349-.504a639.096 639.096 0 0 0 3.289-1.248 263.306 263.306 0 0 1 7.716-2.826 185.99 185.99 0 0 1 4.958-1.64c.938-.294 1.911-.591 2.923-.892 0 0 3.514-1.317 4.246-4.393.486-2.041.553-4.339-.783-6.659-.297 2.257-1.729 7.175-5.472 9.452-1.01.614-3.212 1.474-6.11 2.444-1.185.396-2.483.811-3.866 1.235a219.326 219.326 0 0 1-2.698.811c-.841.247-1.7.496-2.573.744l-.876.246a310.632 310.632 0 0 1-12.781 3.303c-6.974 1.637-12.685 2.659-13.639 2.127-.851-.472-1.531-1.997-2.059-3.797z"/><path fill="#D9B4A4" d="M33.397 83.102c1.38.044 2.56 2.146.684 2.49-1.875.344-2.527.311-3.263-.421-.433-.432-.38-1.09-.298-1.562.118-.696 1.539-.548 2.877-.507z"/><path fill="#D9A99A" d="M34.149 83.326c.968.561 1.449 1.987-.068 2.266-1.762.323-2.445.313-3.131-.297.996.174 2.582.195 3.259-.187.533-.3.216-1.179-.06-1.782z"/><path fill="#D9B4A4" d="M34.259 85.61c1.379.043 2.559 2.146.684 2.488-1.877.345-2.529.313-3.264-.421-.432-.43-.379-1.089-.299-1.562.119-.695 1.539-.548 2.879-.505z"/><path fill="#D9A99A" d="M35.009 85.835c.969.56 1.449 1.987-.066 2.264-1.764.324-2.446.314-3.131-.296.996.173 2.58.195 3.258-.188.533-.3.216-1.179-.061-1.78z"/><path fill="#D9B4A4" d="M34.437 88.056c1.108.033 2.057 1.725.55 2.001-1.509.276-2.033.249-2.624-.338-.348-.349-.305-.877-.24-1.256.095-.56 1.237-.442 2.314-.407z"/><path fill="#D9A99A" d="M35.04 88.235c.777.45 1.165 1.597-.054 1.821-1.418.259-1.967.252-2.518-.239.802.141 2.075.157 2.62-.149.429-.242.175-.949-.048-1.433z"/><path fill="#D0C9CB" d="M57.259 97.147l10.189-2.466.455 1.804-10.19 2.466zm7.097-17.227l-12.33 3.111-1.176-4.663 12.33-3.11z"/><path fill="#D96143" d="M72.591 28.061s-1.186 2.548 1.758 6.546 5.141 4.701 5.009 4.438c-.132-.264-.396-6.151-.396-6.151s1.449 3.119 7.292 6.37c5.844 3.251 8.085 3.734 7.602 3.295-.483-.439-1.978-5.931-1.978-5.931s5.315 5.008 6.106 7.424c.79 2.417.747 6.898 1.143 6.238.395-.659 1.757-3.866 1.757-3.866s.044 5.141-.79 7.513c-.835 2.373-1.494 3.471-.835 2.855.658-.615 1.669-1.274 3.778-3.251 2.108-1.977 4.211-9.066 4.587-9.235.378-.168 2.01-.549 2.01-.549s.695-1.2.872-3.352c.176-2.153-.045-2.548.219-2.284.265.263 1.275 2.24 1.319 1.361.043-.878-.044-6.371-2.328-10.236-2.285-3.866-5.316-6.239-6.372-6.766-1.054-.528-1.098-.528-.745-.528.351 0 2.943-.087 2.548-.308-.396-.219-2.109-2.021-7.777-3.734-5.667-1.713-11.466-.395-11.466-.395l1.889-1.538s-5.491.088-8.04 1.23c-2.548 1.142-5.591 4.809-6.413 6.414-.823 1.607-.749 4.44-.749 4.44z"/><path fill="#D96143" d="M108.903 27.974c-2.144-3.114-4.625-5.026-5.56-5.493-1.054-.528-1.098-.528-.745-.528.351 0 2.943-.087 2.548-.308-.396-.219-2.109-2.021-7.777-3.734-5.667-1.713-11.466-.395-11.466-.395l1.889-1.538s-5.491.088-8.04 1.23c-2.548 1.142-5.591 4.809-6.413 6.414-.091.176-.17.366-.24.566 1.51-1.052 3.482-2.201 5.576-3.05 4.656-1.89 7.557-2.241 6.766-1.758-.791.483-2.599 3.705-2.222 3.192.376-.512 4.771-2.05 8.834-2.116 4.064-.066 5.271.637 5.008.593s-1.494 1.23-2.196 4.921 2.504 7.776 2.328 7.337c-.175-.439-.328-6.597 1.373-8.768 1.702-2.171 1.967-2.259 1.967-2.259s3.009 1.977 5.688 5.052c2.68 3.076 3.866 6.766 3.866 6.458 0-.185-.614-3.165-1.184-5.816z"/><path fill="#D96143" d="M74.919 29.905c-.57 1.45-1.273 4.394-5.008 6.678-3.734 2.285-6.195 2.709-6.195 2.709l2.506-2.84c-3.102 1.991-5.344 2.024-8.173.769l4.854-1.911c-3.063.752-5.25.145-6.105-1.517 2.107.198 4.194-3.756 5.336-6.523 3.91-9.471 17.597-10.319 20.474-6.415 1.229 1.669.527 5.624 0 6.502-.528.878-7.689 2.548-7.689 2.548z"/><path fill="#D96B52" d="M77.493 18.714c-4.865-.399-11.582 1.655-14.693 7.186 1.065-.836 2.458-1.699 4.232-2.433 5.096-2.109 7.249-2.724 6.502-2.241-.499.323-1.637 2.966-2.434 4.537.49-.453 1.174-.999 1.998-1.574 1.51-1.052 3.482-2.201 5.576-3.05a43.344 43.344 0 0 1 3.062-1.117c2.788-.894 4.303-1.007 3.704-.641-.646.396-1.974 2.621-2.229 3.139l.008.053c.376-.512 4.771-2.05 8.834-2.116 4.064-.066 5.271.637 5.008.593-.19-.031-.887.626-1.524 2.39-.242.674-.477 1.51-.672 2.531-.702 3.69 2.504 7.776 2.328 7.337-.175-.439-.328-6.597 1.373-8.768 1.702-2.171 1.967-2.259 1.967-2.259s3.009 1.977 5.688 5.052c2.68 3.076 3.866 6.766 3.866 6.458 0-.186-.614-3.166-1.184-5.816-2.144-3.114-4.625-5.026-5.56-5.493-1.054-.528-1.098-.528-.745-.528.351 0 2.943-.087 2.548-.308-.396-.219-2.109-2.021-7.777-3.734-5.667-1.713-11.466-.395-11.466-.395l1.889-1.538s-5.491.088-8.04 1.23c-.733.329-1.508.867-2.259 1.505z"/><path fill="#D95F43" d="M64.886 35.307c-.063.071-.085.087-.064.047.003-.009.025-.024.064-.047zm15.779-11.508c-.817 1.137-1.907 2.886-2.693 4.896a16.52 16.52 0 0 0-.183.481c-1.376 3.75-1.093 5.961-1.093 6.636 0 .703-1.361-2.68-1.054-5.36.028-.243.065-.494.111-.749.357-2.017 1.195-4.327 1.496-5.51.081-.319.124-.556.105-.683-.025-.189-.263.14-.65.764-.884 1.417-2.544 4.355-4.269 6.177-.146.155-.293.302-.439.439-2.471 2.305-6.551 4.085-7.111 4.416.156-.179.57-.713 1.201-1.582.828-1.139 1.442-2.864 1.785-3.315a17.82 17.82 0 0 1-.729.69c-1.235 1.115-3.648 3.065-5.539 3.306-2.767.352-4.678-.606-4.678-.606-.042 0-.086-.003-.129-.007.855 1.662 3.043 2.269 6.105 1.517l-4.854 1.911c2.015.895 3.732 1.135 5.674.479.784-.265 1.605-.676 2.499-1.248l-2.506 2.84s2.461-.424 6.195-2.709c1.73-1.059 2.81-2.259 3.527-3.386.247.447.548.917.91 1.41 2.943 3.998 5.141 4.701 5.009 4.438-.132-.264-.396-6.151-.396-6.151s1.449 3.119 7.292 6.37c.787.438 1.509.826 2.168 1.167 4.229 2.197 5.852 2.508 5.434 2.127-.126-.114-.319-.567-.537-1.177-.621-1.741-1.44-4.754-1.44-4.754s3.451 3.251 5.206 5.778c.423.61.747 1.177.9 1.646l.031.099c.016.048.03.098.045.148.712 2.46.685 6.629 1.066 5.992.395-.659 1.757-3.866 1.757-3.866s.044 5.141-.79 7.513c-.835 2.373-1.494 3.471-.835 2.855.658-.615 1.669-1.274 3.778-3.251 2.104-1.972 4.199-9.025 4.584-9.233l.003-.002c.074-.032.195-.074.343-.118.608-.185 1.667-.432 1.667-.432s-2.622-7.331-2.358-8.165c.087-.277-.14.367-.479 1.375a148.19 148.19 0 0 0-1.449 4.499c-.222.751-.367 1.312-.356 1.462.023.323-.244-.165-.604-1.094a30.988 30.988 0 0 1-1.064-3.343c-.704-2.724-.967-8.436-.659-9.313.308-.879-2.021 3.778-1.494 7.864.527 4.086-.264 5.624-.264 5.624s-6.02-5.228-8.039-8.127c-1.859-2.667-2.64-8.156-2.446-9.535-.449 1.164-2.046 5.301-1.553 8.788.615 4.35.968 4.745 1.143 5.14.176.396-8.128-5.271-8.875-7.424-.261-.753-.351-1.957-.327-3.244.027-1.626.235-3.386.499-4.535.126-.542.263-.948.4-1.14.331-.462-.216.062-1.041 1.212z"/><path fill="#D49282" d="M80.816 63.609c-1.746.527-4.02.088-3.8.088.219 0 .834.736 2.285.593 1.45-.143 1.515-.681 1.515-.681z"/></g></svg>