<svg xmlns="http://www.w3.org/2000/svg" width="160" height="160" viewBox="0 0 160 160"><path fill="#F99212" d="M89.211 74.561a1.694 1.694 0 0 1-1.683-1.703v-97.455c0-.946.757-1.703 1.683-1.703.931 0 1.687.756 1.687 1.703v97.455a1.695 1.695 0 0 1-1.687 1.703"/><path fill="#00AEF7" d="M125.013 21.391c0 20.02-16.027 36.246-35.802 36.246S53.412 41.411 53.412 21.391c0-20.021 16.025-36.245 35.799-36.245s35.802 16.224 35.802 36.245"/><path fill="#FFB02A" d="M97.057 75.084c0 4.389-3.515 7.949-7.846 7.949-4.332 0-7.845-3.561-7.845-7.949 0-4.387 3.513-7.941 7.845-7.941 4.331 0 7.846 3.554 7.846 7.941"/><path fill="#FFB02A" d="M65.357 81.706h47.703v6.625H65.357z"/><path fill="#F99212" d="M71.165 75.084h36.097v6.622H71.165z"/><path fill-rule="evenodd" clip-rule="evenodd" fill="#FFB02A" d="M106.324-10.456a7.112 7.112 0 0 0-2.663 1.42c-.299-.046.117-.612-.314-.494l-.36.093c-.252.319.405.504.186.725-.673.107-1.004.421-.992.936-.294.072-.479-.036-.818.119-.058.288.524.103.268.313-.599.159-.937-.118-1.188-.551.679-.262 1.713-.046 1.795-.766-.967-.896-3.134.221-4.018-.473-1.738.313-2.763 1.184-4.172 1.882.149.766-.674 1.436-.849 2.248-.829.222-1.065.787-1.589 1.188.175 1.667 1.425 1.492 2.145.582.329.263.71.427.904.921-.174.124-.245.313-.575.344-.062-.237-.103-.524-.256-.607-.419.103-.577.37-.681.664.139.319.376.468.433.941-.31.149-.611.299-1.044.376-.448.895-1.019 2.067-2.162 2.304-.07.16.027.427-.267.458-.364.175-.705-.082-.663.365.668.042 1.918.777 1.316 1.77-.94.417-2.201.174-2.628.89.438 1.147-.021 1.672.566 2.546.591-.242 1.044-.226 1.208.257-.041 1.142-1.574 1.404-1.06 2.881-1.107 1.25-1.796 2.751-2.187 4.434 1.172.854.339 2.454 1.003 3.869.729.401 1.616.519 2.001 1.496.973.098 1.64 1.034 2.604.844.735-.139 1.312-1.069 2.352-.813.605-.561 1.214-1.116 2.416-1.312.31.164.438.632.84.648.432-.052.581-.268.951-.355 1.274.252.437 1.657.827 2.474.177.36.88.556 1.282.911.9.797 1.203 1.789 1.779 2.808-.128.946-.694 1.878-.195 2.938.283.597 1.168 1.003 1.585 1.698.37.623.467 1.445.889 1.976.464.586 1.374.966 1.672 1.676-.117.53.268.911.633.993 2.942-.931 4.8-2.511 4.517-5.339 1.085-.36 1.085-1.657.303-2.496.357-1.08 1.549-1.672 1.956-2.726-.252-1.872-1.205-2.521-1.692-3.982.34-3.179 3.884-4.872 2.916-8.575-.972.405-2.947 2.058-3.204.468 1.353-.529 2.813-1.635 3.559-2.778 1.303-.576 1.477-1.82 1.796-2.979-.575-.56-1.615-.333-2.083-1.085-.217.541-.509 1.024-1.421 1.152-.431-1.167-1.841-.632-2.205-1.919.098-.128.302-.18.396-.303.94.453 2.043 1.61 3.38.556.787 1.081 2.658.005 4.099-.319.47.37 1.004.612 1.616.725-.067.355.19.494.463.591-3.239-7.06-8.646-12.894-15.37-16.608M96.125-2.894c-.012-.293-.226-.226-.237-.52.118-.313.521-.457.556-.817-.154-.263-.53-.134-.674-.401-.34-1.039 1.096-1.018.915-1.975.288-.109.597-.371.823-.124.037.555-.685.664-.745 1.162.276 2.012 1.945.036 2.793.51-.618.37-1.816.401-1.913 1.085.144.154.796-.489.813.169-.191.309-.407-.062-.736.098-.267.221-.237.623-.099 1.085-.432.602-1.321.278-1.846.972-.525-.278-1.266.551-1.601.041.936-.256 1.368-.817 1.951-1.285m9.845 8.652c-.41.314-.766-.031-1.204.128-.247.093-.37.381-.644.453-1.274.364-2.638-.509-3.81.339-.084.262.159.705.056.952-1.457.036-2.556-.535-4.023-.479.119-.494.099-1.08-.371-1.44-.966.314-1.707.571-2.647.802-.88.216-1.075.9-1.775 1.235-.314.154-1.003.469-1.403.087.448-.575 1.537-.766 1.815-1.445-.52-1.106.967-1.461.869-2.541.977.077 1.342-.396 1.836-.968.927.701 2.197.802 3.206 1.364.132.257-.011.354.051.561.462-.057.55-.705.17-.808-.051-.236.252-.262.483-.324-.829-.602-2.156-.355-2.665-1.507.941-.195 1.887.73 2.947.762.278 1.09 1.162 1.131 1.632 1.872.087-.025.18-.041.262-.071.237-.19.17-.561.488-.7-.087-.561-.71-.17-.766-.762.453-.015.463-.684.817-.503.69.54.982 1.775 2.187 1.44.391-.046.283-.391.632-.463.188.124.406.18.628.227.407-.15.475-.488.998-.556.616.663.298 1.635.231 2.345m-2.679-3.719c-.232.139-.264-.066-.47.026-.375.082-.154.514-.612.55-.139-.602-.298-1.821.166-2.645.746-.33.972.242 1.439.385.329-.055.463-.226.659-.364.01-.365-.37-.057-.381-.381.164-.256.423-.463.905-.524.196.36-.073.458-.099.694.623.623 1.961-.005 2.29 1.132-1.294.993-3.023-.231-3.897 1.127m5.107 19.347c.297.124.334.72.606.9-.324-.046-.734-.478-.606-.9m.695-1.338c-.294-.709-.145-1.157.633-1.229.256.417.108 1.399-.633 1.229m2.212 4.132c-.359.01-.159-.345-.252-.608.307-.159.307.51.252.608m.766-11.761c-1.353-.272-2.269-1.296-3.309-2.104-.479-1.518-2.006-1.914-2.421-3.117.148-.036.297-.078.44-.118.809.606 1.698 1.07 2.255 2.098.563.653 1.99 1.019 1.923 1.904.499.221.81.772 1.112 1.337M110.544 1.37c-.052-.308-.063-.597.075-.792-.596-.576-1.388-.813-1.918-1.512.181-.715.654-1.245 1.73-1.425.05.216.219.232.229.52-.416.087-.622.293-.716.576.635.607 1.359.818 2.074.988.164.284-.242.211-.406.298.206.623 1.023.668.931 1.395-.555.58-1.522.287-1.999-.048m3.013-3.405c-.308.062-.514-.073-.581-.417.395-.221.7.144.581.417m-27.562 29.46c-1.531.092-2.15-.844-3.93-.112-.638-.968-1.98.031-2.665-.741.077-.525-.719-.659-.817-1.322-.761-.766-1.77-.093-2.613-.175-.709-.072-.982-.957-1.724-.797-.148-.227-.278-.474-.452-.643-.195.535-.469-.093-.916.144-.751.638-1.749.463-2.608.21-.354.062-.245.412-.644.458-.107-.267.12-.52-.226-.515-.205.463-.704.751-1.26 1.009-.222.38-.067.977-.551 1.204-.555-.34-1.312-.072-1.801.38-.483-.072-.844-.36-1.146-.756-.016-.591.006-1.167-.087-1.806-.56-.473-1.347.263-2.135.18.047-.807.386-1.445.237-2.372-.35-.277-.813.135-1.152.304-.052.916-.596 1.528-1.836 1.739-1.549-.473-1.111-2.351-1.158-3.734.643-.813 1.436-1.786 2.84-1.523.483-.921 2.16-1.153 2.85-.757.118.299.091.515.091.747.321.144.701.19 1.168.071-.19-.638-.488-1.07-.648-1.754.468-1.117 1.553-1.878 2.423-2.762-.083-.329-.17-.659-.252-.988.145-.041.294-.077.442-.118.237-.978.978-1.657 2.005-2.171-.313-1.224 1.107-1.43 1.854-2.027-.052.206-.33.479-.026.674.544-.752 2.022-.947 2.177-1.924-.521 0-.928.916-1.518.407-.264-.572.215-.694.19-1.111-.3-.252-.541.18-.85.031.128-.92 1.233-.386 1.655-.247.258-.309-.498-.242-.297-.401.973-.148 1.507-.859 2.197-1.065-.165.602-.953 1.204-.783 1.755.85-.304 1.461-.18 2.139-.191.068-.35-.226-.572-.282-1.08-.165-.145-.612.196-.689-.103.012-.524.294-.895.187-1.492-.371-.324-.792-.55-1.303-.617-.324-.535-.396-1.492-.91-1.687-.545.268-.493.88-1.152 1.076-.179-.072-.396-.093-.469-.355-.118-.272.217-.272.037-.587-.407 0-.648-.262-.962-.416-.392.334-.921.216-1.43.375-.885 1.143.628 3.411-1.786 3.746-.107.596.129 1.399-.626 1.61-.664-.391-.238-.962-.218-1.58-1.271.458-1.759-.442-2.973-.077.005-.555-.139-.443-.385-.761.674-1.482 2.488-2.289 3.883-3.344 0 .273-.509.499-.185.726.587-.067 1.157-.607 1.754-.566-.092-.633-1.084-.38-1.059-.777.993.113 1.697-1.013 1.898-1.847.473-.103.895-.236 1.225-.421.369.185.708.421 1.102.571C71.592.025 70.13.205 69.637.956c.4.16.689-.268 1.156-.308.592.406 1.24.72 2.213.473.078-.324-.433-.283-.205-.427.523.058.869-.045.884-.622-.083-.381-.509-.164-.54-.623.356-.463.602.21.982.119.365-.262.803-.484.793-.983-.346-.313-1.02-.056-1.344-.411-.153-.288.047-.376-.075-.649-.646-.149-1.483.042-1.857-.57-1.755.519-4.204.647-3.905 2.191.139.19.638-.227.632.216-.19.427-.554.746-.976 1.029-.283-.159.144-.241-.052-.561-.231-.072-.582.046-.648-.314.041-.226-.083-.555-.004-.766.354-.324 1.239-.335 1.192-.896-1.003-.317-1.321.759-1.883 1.175-.031-.272.242-.37.098-.705-.658.031-1.333.659-1.663.921.274.401.751.221 1.098.195-.202.283-.181.581.056.946-.139.17-.299.329-.551.437-.17-.329.351-.251.124-.612-.632-.175-.946.433-1.013.85-.695.107-1.642.663-1.961.128.803.016 1.261-.344 1.709-.74-.031-.376-.433-.119-.499-.442-.052-.469.483-.583.502-1.004-.554-.169-.854.669-1.306.829-.458.16-1.544-.206-1.77-.206-.083 0-.165.011-.252.015a39.93 39.93 0 0 0-1.359 1.971c-.025.149-.056.293-.144.406-.036-.005-.072-.005-.107-.005a38.356 38.356 0 0 0-1.925 3.467c.223-.278.496-.536.834-.355-.159.309-.54.488-.967.638a36.45 36.45 0 0 0-3.494 15.628c0 .082.006.165.006.241.705.597 1.431 1.153 2.007 1.96.071.293-.165.412.01.767 1.287.51 2.954 1.317 4.583.422.557-.011.788.571 1.411.684.931.175 2.155-.427 2.444.988.827.221 1.547.627 2.458.7.052-.354-.062-.808.442-.886.556.387.942 1.06 1.111 2.109-.329.844-1.064 1.451-.838 2.629.036.33.376.135.405.473-.015.319-.421.412-.257.839 1.214 1.142 2.527 2.145 3.585 3.57 1.139.654 2.1.01 2.918.961.973 1.142.797 3.437 1.703 5.134.381.71.921 1.832.808 2.768.716.329.699 1.924 1.502 2.104.01-.169-.247-.5-.052-.561.18.164.335.375.386.762.03.169-.288.133-.31.277.237.33.284.401.324.875.118.185.443.01.539.242-.064.144 0 .355-.064.504.369.447.92.581 1.238 1.111.474.056.855.262 1.193.55.881-.082 2.5.7 3.031-.417-.869-.287-1.862-.345-2.409-1.193.248-.391.17-.967.305-1.425-.283-.257-.884.047-1.055-.396.299-.462.248-1.126.313-1.723-.319.046-.6 0-.739-.282.298-.103.739-.119.869-.324-.053-.289-.232-.648-.123-.838 1.878-.201 1.368-1.816.488-2.15.432-.097.715.067 1.205-.128.615-.34.271-1.106.472-1.858.222-.843 1.101-1.456.284-2.571.374-.776 1.048-1.369 2.118-1.724.474-1.152.603-2.629-.04-4.223.263-1.227 1.694-2.661.314-3.937M72.358-.641c.021.087-.088.103-.149.139-.021-.088.089-.099.149-.139m-9.294 12.963c.02-.905.189-1.724 1.188-2.047-.751.473-.37 1.615-1.188 2.047m4.151-1.97c.091.407-.572.442-.839.422.041-.282.504-.314.839-.422m-1.25-.437c.025.118.062.242.091.359-.704.042-.626.546-.818.895-.488-.005-.384-.828-.457-1.034.391-.272.823-.092 1.184-.22m-.124 1.383c-.145.334-.658.798-1.147.689.189-.343.746-.473 1.147-.689m-1.266-1.594c-.693.607-1.538.159-2.222.591.356-.519 1.806-1.877 2.222-.591M60.661 8.53c-.242-.174-.304-.746.19-.725.134.355.134.638-.19.725m.438-6.759c-.176.258-1.149.433-1.58.515-.021-.092-.046-.185-.065-.272.353-.222 1.114-.135 1.645-.243m8.734 23.488c-.159.021-.242-.103-.268-.313.268-.119.375.139.268.313"/><path fill-rule="evenodd" clip-rule="evenodd" fill="#FFB02A" d="M89.529.301c-.771.493-.103.957-.206 1.398.68-.509 2.32-.458 1.965-1.584-.683-.154-1.156-.689-1.701-1.085.035-.179.143-.319.149-.519-.525.144-.376-.37-.681-.401-.493.314-1.033.607-.673 1.425.325.354 1.018.076 1.147.766"/><path fill-rule="evenodd" clip-rule="evenodd" fill="#FFB02A" d="M87.204 1.591c.592.114 1.069-.422 1.436-.678-.206-.454-.005-.664.035-.967-.688-.443-1.085.339-1.526.689.312.411.092.576.055.956m7.871 3.591c.618-.031.458-.7.21-1.019-.628-.015-.493.736-.21 1.019m2.763-.349c-.341.16-1.029.112-1.024.467.314.109.622.232 1.075.099-.14-.258.082-.305-.051-.566m19.377 17.582c-.304.545-.334 1.064-.734 1.548-.299.355-.773.448-.933.823-.179.432.319.885.351 1.348.051.762-.551 1.687.427 2.392.438.098.819-.201 1.137-.396-.094-1.8 1.233-4.295-.248-5.715"/><path fill="#FFB02A" d="M89.072 63.988c-23.2 0-42.074-19.109-42.074-42.597s18.874-42.598 42.074-42.598c2.145 0 4.305.164 6.415.494.925.139 1.547 1.008 1.407 1.939-.139.931-.995 1.585-1.917 1.425a38.968 38.968 0 0 0-5.905-.447c-21.344 0-38.705 17.583-38.705 39.188 0 21.611 17.361 39.199 38.705 39.199 1.975 0 3.967-.16 5.905-.463a1.695 1.695 0 0 1 1.917 1.424c.14.932-.482 1.807-1.407 1.95-2.11.322-4.265.486-6.415.486"/><path fill="#FFF099" d="M85.384-38.656c-2.274-2.793-7.096-5.036-12.361-4.002-5.309.679-9.266 4.213-10.545 7.696 3.195 2.258 7.521 2.885 12.098 2.32 4.53-.917 8.462-2.748 10.808-6.014m-28.51-7.809c-5.302.813-10.391 4.321-12.597 8.564-2.151 4.409-1.054 8.138 1.743 10.371 4.244-1.728 8.232-4.547 10.644-8.43 2.438-3.735 2.618-7.789.21-10.505m8.556 24.892c-.17-3.539-2.141-6.8-6.271-8.102-4.044-1.183-9.101.231-12.331 3.452.772 3.482 3.822 6.008 7.655 6.739 3.94.88 7.762-.092 10.947-2.089M38.624-37.488c-4.902 2.104-9.152 6.574-10.232 11.322-1.229 4.645.828 8.153 3.998 9.609 3.848-2.567 6.95-6.373 8.461-10.653 1.41-4.363.803-8.107-2.227-10.278m14.053 22.181c-.916-3.298-3.74-6.24-7.953-6.374-4.265-.257-8.729 2.423-11.256 6.204 1.611 3.267 5.017 4.866 9.06 4.836a14.814 14.814 0 0 0 10.149-4.666m-29.722-9.177c-4.332 3.184-7.305 8.606-7.428 13.38.072 4.948 2.726 7.778 6.204 8.488 2.989-3.488 5.288-7.85 5.756-12.372.477-4.475-1.188-8.184-4.532-9.496M41.694-6.191c-1.743-3.092-4.948-5.087-9.177-4.321-4.177.746-8.067 4.331-9.486 8.694C25.274.939 29.116 1.803 32.825.691c3.951-.998 6.93-3.595 8.869-6.882M10.701-8.136C7.234-4.041 5.402 1.905 6.591 6.652c1.075 4.749 4.265 6.863 7.855 6.745 2.248-4.063 3.379-8.843 2.782-13.385-.569-4.475-2.895-7.614-6.527-8.148M33.114 5.269c-2.329-2.556-6.043-3.827-9.969-2.082-3.874 1.733-6.724 6.142-7.249 10.683 2.779 2.14 6.75 2.078 10.232.17a15.328 15.328 0 0 0 6.986-8.771M2.445 10.635C.1 15.497-.282 21.669 1.895 26.011c2.068 4.342 5.952 5.674 9.27 4.701 1.24-4.464 1.131-9.434-.38-13.663-1.658-4.238-4.755-6.769-8.34-6.414m24.882 7.737c-2.916-1.95-6.707-2.279-10.056.36-3.488 2.567-5.134 7.572-4.589 12.093 3.339 1.445 6.893.417 9.923-2.248 2.921-2.736 4.568-6.373 4.722-10.205M-1.109 30.856c-1.354 5.247-.072 11.337 2.865 15.046 3.194 3.729 7.021 4.157 10.133 2.418.042-4.62-.898-9.455-3.533-13.195-2.439-3.729-6.065-5.462-9.465-4.269m25.977 1.662c-3.288-1.214-7.027-.633-9.82 2.721-2.608 3.308-3.369 8.576-1.652 12.839 3.468.644 6.95-1.219 9.089-4.496 2.393-3.343 2.928-7.294 2.383-11.064M-.05 51.33c-.016 5.396 2.372 11.137 6.312 13.977 3.849 2.922 7.63 2.443 10.294 0-.88-4.574-3.082-8.956-6.416-12.033-3.333-3.03-7.063-3.914-10.19-1.944m25.659-4.445c-3.391-.427-7.083 1.044-8.935 4.938-1.862 3.863-1.214 9.084 1.285 12.891 3.482-.18 6.481-2.824 7.921-6.564 1.333-3.729 1.217-7.767-.271-11.265M5.644 71.058c1.292 5.252 4.975 10.194 9.373 12.098 4.419 1.91 8.154.449 10.093-2.494-1.935-4.192-5.153-7.937-9.018-10.164-3.946-2.161-7.958-2.048-10.448.56m23.921-10.392c-3.493.433-6.559 2.645-7.45 6.868-1.012 4.234.891 9.155 4.229 12.223 3.432-1.061 5.577-4.225 6.106-8.196.52-4.016-.576-7.854-2.885-10.895M15.834 88.82c2.315 4.882 7.134 8.765 11.842 9.563 4.764.808 7.937-1.353 9.218-4.737-2.865-3.627-6.712-6.615-11.141-7.747-4.214-1.266-8.07-.228-9.919 2.921M36.71 73.074c-3.271 1.224-5.762 4.115-5.783 8.529.15 4.229 2.984 8.662 6.959 10.869 3.036-1.764 4.522-5.484 4.101-9.445-.395-4.012-2.464-7.442-5.277-9.953"/><path fill="#B094FF" d="M39.348 62.436s2.286-.467 3.963.564c.77.482 1.408 1.283 1.628 2.605 0 0 .009-.008.02-.014l.009-.007.012-.009c-.006.004-.017.011-.021.016l-20.106 38.387c.39.008 1.324.402 4.407.122 4.375-8.149 19.624-37.162 20.231-38.431.011-.076.023-.17.032-.277.167-1.68.268-7.058.325-11.49-.026-3.415-.016-6.236.061-6.228-.063.046-2.573 1.91-5.246 3.918-3.942 2.96-8.763 6.621-9.975 7.723-.013.012-.027.023-.039.036 0 0-15.556 30.475-19.463 38.595.362.521.752.959 1.222 1.418.215.213.446.427.699.657.227.21.473.429.739.67l-.007.013c.268.241.556.502.868.79v.002c1.925 1.144 4.625 2.208 6.135 2.494 0 0-.046-.001 0 0L44.949 65.6c-.01.011-.021.018-.021.018-.696-4.188-5.589-3.172-5.589-3.172-.01-.02-.02-.035-.029-.056 0-.003-.002-.005-.006-.009l.01-.014c.011.024.024.045.034.069m5.695 3.099c.003-.004.01-.007.015-.008a.054.054 0 0 0-.022.013c.002-.002.004-.005.007-.005m2.031-.706c-.049.005-.096.012-.145.019.049-.007.096-.014.145-.019m-.685.122c-.041.012-.079.021-.117.033l.117-.033m-.305.09l-.103.037.103-.037m-.275.104l-.087.035c.028-.012.056-.024.087-.035m-.244.105l-.072.033.072-.033m-.21.102c-.019.014-.037.021-.054.03.017-.009.035-.017.054-.03m-.17.095c-.013.01-.028.016-.04.023.012-.007.027-.013.04-.023m2.493-.628c.054.003.107.003.161.009-.054-.006-.107-.006-.161-.009m.403.042c.054.01.108.018.164.027-.056-.009-.11-.017-.164-.027m1.408-10.896a4.859 4.859 0 0 1-1.787-.028 5.977 5.977 0 0 0 1.787.028"/><path fill="#FFCAAC" d="M39.348 62.435s4.894-1.016 5.591 3.171c0 0 2.204-1.641 4.584-.215.167-1.678.268-7.054.325-11.489-2.866.63-4.428-1.037-5.185-2.308-3.942 2.961-8.763 6.622-9.975 7.723 1.392.08 3.53.644 4.66 3.118"/><path fill="#FFA47E" d="M46.097 52.691l-6.944 9.907-4.465-3.282 9.977-7.723z"/><path fill="#523DA1" d="M15.187 97.945c4.499-9.237 19.463-38.594 19.463-38.594S19.094 89.828 15.187 97.945M38.49 61.113c.015.021.031.04.046.063l-20.697 39.528c.268.241.556.502.868.792L39.31 62.391a5.499 5.499 0 0 0-.82-1.278M16.408 99.364c.215.213.446.428.701.657a3.337 3.337 0 0 0-.701-.657"/><path fill="#3E2B8C" d="M38.498 61.102c-1.092-1.497-2.45-1.706-3.81-1.786 1.093.065 2.646.431 3.81 1.786"/><path fill="#3E2B8C" d="M38.498 61.102c-1.164-1.354-2.717-1.721-3.81-1.786-.013.012-.027.023-.039.036 0 0-14.964 29.357-19.463 38.595.362.521.752.959 1.222 1.418.237.163.47.375.699.657.229.21.475.431.742.672l20.697-39.529c-.015-.023-.032-.042-.048-.063"/><path fill="#674BB8" d="M44.928 65.617c-.696-4.188-5.589-3.173-5.589-3.173-.01-.019-.02-.034-.029-.054l-20.603 39.104c1.923 1.145 4.578 2.163 6.135 2.494 0 0-.046-.001 0 0L44.949 65.6c-.01.01-.021.017-.021.017"/><path fill="#745FED" d="M49.491 65.67c.011-.074.023-.172.031-.279-2.258-1.352-4.354.053-4.563.201l-20.106 38.387c.44.067 1.533.313 4.407.123 4.375-8.149 19.623-37.164 20.231-38.432"/><path fill="#8476FF" d="M45.689 66.294s-18.865 35.77-18.829 35.938c.036.168 2.305 1.102 2.497.833.193-.271 19.267-36.821 19.393-37.097.124-.277-1.699-.773-3.061.326"/><path fill="#FA885A" d="M34.688 59.316s.279-.101.805-.135a4.592 4.592 0 0 1 2.179.43c.437.193.885.479 1.3.856.193.196.415.396.584.617l.248.302.046.029c.009.004.012.01.022.008.055-.021.011-.032.122-.056.262-.03.525-.054.791-.059a7.174 7.174 0 0 1 1.956.276 4.958 4.958 0 0 1 1.83 1.089c.264.257.491.536.658.849.093.15.179.303.23.463.081.202.025.115.039.164-.001.036-.016.108-.014.177.021.01.049.019.094.026-.069.063.731-.172 1.154-.154.988-.064 1.781.291 2.202.611.428.334.577.598.588.58-.006.018-.277-.126-.759-.178-.473-.072-1.12-.04-1.806.219-.171.07-.344.146-.52.238-.097.054-.517.261-.909.527-.359.259-.724.523-1.12.811-.15-.437-.299-.98-.465-1.553a2.414 2.414 0 0 0-.245-.604c-.04-.095-.104-.167-.167-.241-.107-.162-.246-.293-.382-.423a2.826 2.826 0 0 0-1.06-.579 4.931 4.931 0 0 0-1.355-.247 6.773 6.773 0 0 0-.606-.032c-.348.002-.873.096-1.287.151l-.198-.397-.5-1.008c-.096-.215-.216-.381-.329-.559-.252-.324-.495-.652-.785-.896-.557-.514-1.165-.83-1.607-1.033a5.57 5.57 0 0 0-.734-.269"/><path fill="#8764D0" d="M49.848 53.902c-.026-3.417-.016-6.235.061-6.228-.063.046-2.573 1.911-5.246 3.918-1.183.89 2.319 2.939 5.185 2.31"/><path fill="#B094FF" d="M49.508 48.569l-.235 4.831s-2.037.204-2.167-.469c-.186-.961 2.225-4.293 2.402-4.362"/><path fill="#FF6245" d="M52.375 81.109s2.319.247 3.609 1.736c.59.691.957 1.647.771 2.975l.024-.008.008-.002.015-.005a.183.183 0 0 1-.023.007l-30.695 30.54c.37.127 1.143.784 4.167 1.448 6.616-6.451 29.865-29.519 30.825-30.543a6.36 6.36 0 0 0 .116-.257c.664-1.554 2.371-6.648 3.756-10.859 1.002-3.266 1.857-5.95 1.927-5.92-.075.024-3.027 1.046-6.178 2.153-4.647 1.635-10.345 3.671-11.83 4.354a.705.705 0 0 0-.047.022s-23.98 24.367-30.144 30.933c.188.606.43 1.143.739 1.722.142.266.299.541.47.836.155.269.324.554.505.862l-.012.011c.184.312.379.646.591 1.015 1.492 1.673 3.748 3.504 5.103 4.23 0 0-.044-.016 0 0l30.695-30.538c-.014.002-.025.007-.025.007.592-4.204-4.38-4.711-4.38-4.711a1.147 1.147 0 0 0-.01-.062l-.001-.012.013-.01c.003.029.008.052.011.076m4.5 4.676l.017-.004c-.008.002-.019.004-.026.007.004-.001.007-.001.009-.003m1.797-.12l-.133-.016.133.016m-.948-.022c-.034.004-.064.005-.095.007l.095-.007m-.265.028c-.026.003-.054.006-.079.011.026-.005.052-.008.079-.011m-.23.035c-.021.004-.042.007-.061.012.02-.005.04-.008.061-.012m-.192.038a.315.315 0 0 1-.044.011c.014-.003.029-.006.044-.011m2.202.035c.049.014.097.025.147.041-.05-.015-.098-.027-.147-.041m.365.118c.051.019.102.037.151.058a6.75 6.75 0 0 0-.151-.058m.371.164c.05.024.1.046.148.073-.049-.028-.099-.049-.148-.073m4.614-9.967a4.883 4.883 0 0 1-1.698-.566 6.02 6.02 0 0 0 1.698.566"/><path fill="#FFCAAC" d="M52.375 81.109s4.974.507 4.38 4.711c0 0 2.594-.896 4.438 1.179.664-1.552 2.371-6.647 3.756-10.858-2.921-.265-3.911-2.324-4.251-3.766-4.647 1.633-10.345 3.671-11.83 4.354 1.302.499 3.173 1.68 3.507 4.38"/><path fill="#FFA47E" d="M61.735 73.854l-9.594 7.353-3.273-4.478 11.829-4.353z"/><path fill="#B81B06" d="M18.677 107.684C25.739 100.232 48.82 76.75 48.82 76.75s-23.98 24.371-30.143 30.934m33.277-28.095c.008.028.017.049.025.076l-31.601 31.45c.183.312.38.647.592 1.016l31.381-31.075a5.624 5.624 0 0 0-.397-1.467m-32.538 29.816c.142.268.299.543.47.836a3.299 3.299 0 0 0-.47-.836"/><path fill="#A00D02" d="M51.965 79.581c-.592-1.755-1.824-2.364-3.098-2.852 1.024.391 2.395 1.209 3.098 2.852"/><path fill="#A00D02" d="M51.965 79.581c-.704-1.643-2.074-2.461-3.098-2.852-.017.007-.033.016-.047.021 0 0-23.081 23.482-30.143 30.934a9.67 9.67 0 0 0 .737 1.723c.18.226.339.499.472.836.156.271.324.555.507.864l31.6-31.45c-.01-.026-.02-.049-.028-.076"/><path fill="#D2290C" d="M56.742 85.829c.592-4.204-4.38-4.711-4.38-4.711l-.01-.062L20.97 112.13c1.492 1.673 3.717 3.444 5.103 4.23 0 0-.044-.016 0 0l30.695-30.538a.102.102 0 0 0-.026.007"/><path fill="#FF311A" d="M61.077 87.257c.034-.069.073-.156.116-.257-1.749-1.97-4.17-1.267-4.413-1.187l-30.696 30.541c.4.194 1.37.76 4.167 1.446 6.617-6.451 29.865-29.518 30.826-30.543"/><path fill="#FF3524" d="M57.267 86.703s-28.726 28.418-28.743 28.59c-.017.173 1.866 1.748 2.131 1.55.266-.201 29.424-29.301 29.626-29.526.202-.224-1.387-1.251-3.014-.614"/><path fill="#FA885A" d="M48.868 76.729s.296-.011.809.116a4.617 4.617 0 0 1 1.949 1.065c.359.314.7.725.981 1.206.126.249.277.503.374.768l.145.364.035.04c.009.007.011.014.021.014.058-.004.018-.027.133-.015.259.051.516.106.772.183a7.145 7.145 0 0 1 1.782.854 4.947 4.947 0 0 1 1.417 1.589c.175.322.31.657.373 1.007.044.171.081.342.082.511.009.106 0 .141 0 .141-.006.021-.009.02-.013.03-.012.033-.046.098-.065.165a.401.401 0 0 0 .081.053c-.085.041.75.055 1.148.2.961.239 1.609.815 1.915 1.249.31.447.371.741.388.731-.011.014-.226-.205-.672-.4a3.627 3.627 0 0 0-1.787-.335 5.575 5.575 0 0 0-.568.071c-.108.021-.572.091-1.027.228l-1.309.433c-.011-.462.009-1.026.021-1.623.029-.238-.04-.604-.052-.648-.008-.1-.048-.189-.086-.277-.055-.188-.146-.353-.236-.521a2.87 2.87 0 0 0-.838-.871 5.11 5.11 0 0 0-1.22-.646 6.395 6.395 0 0 0-.567-.21c-.333-.104-.859-.173-1.27-.244l-.072-.441-.171-1.11c-.029-.232-.093-.427-.149-.631-.141-.387-.274-.772-.479-1.091-.375-.661-.86-1.144-1.223-1.474-.37-.323-.622-.481-.622-.481"/><path fill="#EB4420" d="M64.949 76.142c1.002-3.264 1.857-5.95 1.927-5.92-.075.026-3.027 1.045-6.178 2.154-1.395.49 1.33 3.5 4.251 3.766"/><path fill="#FF6245" d="M66.226 70.952l-1.673 4.537s-2.003-.42-1.927-1.101c.11-.974 3.409-3.422 3.6-3.436"/><path fill="#008FD0" d="M88.87 96.35s26.356-57.897 26.99-57.983c.633-.088 10.367 6.479 10.367 6.479l-26.906 55.8L88.87 96.35z"/><path fill="#00C9FF" d="M90.673 95.771s25.088-55.048 25.72-55.135c.634-.088 8.146 4.923 8.146 4.923L98.79 98.862l-8.117-3.091z"/><path fill="#FFF" d="M100.171 96.187a.42.42 0 0 1-.359.756l-2.087-.999a.417.417 0 1 1 .358-.754l2.088.997zm2.114-4.444a.418.418 0 1 1-.359.757l-2.089-.998a.42.42 0 0 1 .361-.756l2.087.997zm2.114-4.442a.418.418 0 1 1-.359.756l-2.087-.997a.419.419 0 0 1 .357-.756l2.089.997zm2.116-4.444c.206.1.296.351.196.559a.417.417 0 0 1-.556.197l-2.089-.996a.417.417 0 0 1-.197-.557.42.42 0 0 1 .558-.199l2.088.996zm2.112-4.441a.418.418 0 0 1-.359.755l-2.088-.995a.42.42 0 0 1-.196-.559.414.414 0 0 1 .555-.197l2.088.996zm2.114-4.443a.42.42 0 0 1-.359.756l-2.089-.996a.42.42 0 0 1 .36-.757l2.088.997zm2.113-4.442a.417.417 0 1 1-.359.755l-2.088-.997a.418.418 0 0 1 .359-.756l2.088.998zm2.114-4.443a.418.418 0 0 1-.357.756l-2.09-.998a.418.418 0 1 1 .36-.756l2.087.998zm2.115-4.442a.42.42 0 0 1 .198.557.421.421 0 0 1-.557.199l-2.088-.998a.415.415 0 0 1-.197-.557.417.417 0 0 1 .557-.199l2.087.998zm2.126-4.736a.418.418 0 1 1-.358.756l-2.09-.997a.417.417 0 0 1-.198-.556.42.42 0 0 1 .558-.2l2.088.997zm2.114-4.442a.42.42 0 0 1 .198.558.42.42 0 0 1-.557.198l-2.088-.998a.415.415 0 0 1-.197-.556.417.417 0 0 1 .556-.2l2.088.998zm2.115-4.443a.419.419 0 0 1-.36.756l-2.088-.998a.414.414 0 0 1-.197-.556.418.418 0 0 1 .557-.2l2.088.998z"/><path fill="#56AD06" d="M132.02 51.938s19.338 39.905 19.913 41.437c-.689.459-49.798 17.381-49.798 17.381-.096-.575 29.885-58.818 29.885-58.818m-16.044 46.188s25.079-8.641 25.431-8.878c.353-.233-10.168-21.16-10.168-21.16s-15.313 29.743-15.263 30.038"/><path fill="#82DF3D" d="M131.988 54.5s17.911 36.811 18.434 38.147c-.647.432-45.727 15.964-45.727 15.964.139-.566 27.787-54.165 27.293-54.111m-17.71 45.079s28.162-9.421 28.558-9.685c.393-.265-11.741-23.655-11.741-23.655s-16.871 33.008-16.817 33.34"/><path fill="#FFF" d="M149.234 90.382a.388.388 0 0 1 .328.701l-1.933.912a.383.383 0 0 1-.512-.185.388.388 0 0 1 .184-.515l1.933-.913zm-1.928-4.114a.386.386 0 0 1 .514.185.385.385 0 0 1-.185.515l-1.933.913a.388.388 0 0 1-.514-.185.393.393 0 0 1 .185-.516l1.933-.912zm-1.927-4.116a.386.386 0 0 1 .514.185.389.389 0 0 1-.185.516l-1.933.912a.387.387 0 0 1-.329-.701l1.933-.912zm-1.928-4.115a.388.388 0 0 1 .328.701l-1.932.912a.387.387 0 0 1-.329-.701l1.933-.912zm-1.928-4.115a.387.387 0 0 1 .329.701l-1.933.911a.384.384 0 0 1-.513-.184.385.385 0 0 1 .185-.515l1.932-.913zm-1.928-4.115a.388.388 0 0 1 .514.186.388.388 0 0 1-.185.514l-1.934.912a.383.383 0 0 1-.512-.184.387.387 0 0 1 .184-.515l1.933-.913zm-1.928-4.116a.386.386 0 1 1 .328.7l-1.932.913a.387.387 0 0 1-.328-.699l1.932-.914zm-1.927-4.115a.386.386 0 0 1 .326.701l-1.931.913a.388.388 0 0 1-.514-.185.39.39 0 0 1 .185-.516l1.934-.913zm-1.929-4.114a.387.387 0 0 1 .329.7l-1.933.912a.387.387 0 0 1-.514-.185.39.39 0 0 1 .186-.515l1.932-.912z"/></svg>